<?xml version="1.0" encoding="UTF-8"?>
<svg version="1.1" xmlns="http://www.w3.org/2000/svg" width="500" height="500">
<path d="M0 0 C128.37 0 256.74 0 389 0 C389 7.59 389 15.18 389 23 C396.59 23 404.18 23 412 23 C412 30.59 412 38.18 412 46 C419.59 46 427.18 46 435 46 C435 174.04 435 302.08 435 434 C427.41 434 419.82 434 412 434 C412 441.59 412 449.18 412 457 C404.41 457 396.82 457 389 457 C389 464.59 389 472.18 389 480 C260.63 480 132.26 480 0 480 C0 472.41 0 464.82 0 457 C-7.26 457 -14.52 457 -22 457 C-22 449.41 -22 441.82 -22 434 C-29.59 434 -37.18 434 -45 434 C-45 305.96 -45 177.92 -45 46 C-37.41 46 -29.82 46 -22 46 C-22 38.41 -22 30.82 -22 23 C-14.74 23 -7.48 23 0 23 C0 15.41 0 7.82 0 0 Z M1 24 C1 31.59 1 39.18 1 47 C-6.26 47 -13.52 47 -21 47 C-21 174.38 -21 301.76 -21 433 C-13.74 433 -6.48 433 1 433 C1 440.59 1 448.18 1 456 C128.71 456 256.42 456 388 456 C388.33 448.74 388.66 441.48 389 434 C399.89 433.505 399.89 433.505 411 433 C411 305.62 411 178.24 411 47 C400.11 46.505 400.11 46.505 389 46 C388.67 38.74 388.34 31.48 388 24 C260.29 24 132.58 24 1 24 Z " fill="#040404" transform="translate(55,10)"/>
<path d="M0 0 C102.3 0 204.6 0 310 0 C310 5.94 310 11.88 310 18 C315.94 18 321.88 18 328 18 C328 23.94 328 29.88 328 36 C333.94 36 339.88 36 346 36 C346 114.21 346 192.42 346 273 C340.06 273 334.12 273 328 273 C328 279.27 328 285.54 328 292 C322.06 292 316.12 292 310 292 C310 297.94 310 303.88 310 310 C207.7 310 105.4 310 0 310 C0 304.06 0 298.12 0 292 C-6.27 292 -12.54 292 -19 292 C-19 285.73 -19 279.46 -19 273 C-24.94 273 -30.88 273 -37 273 C-37 194.79 -37 116.58 -37 36 C-31.06 36 -25.12 36 -19 36 C-19 30.06 -19 24.12 -19 18 C-12.73 18 -6.46 18 0 18 C0 12.06 0 6.12 0 0 Z M1 19 C0.67 24.61 0.34 30.22 0 36 C-5.94 36.33 -11.88 36.66 -18 37 C-18 114.88 -18 192.76 -18 273 C-11.73 273 -5.46 273 1 273 C1 278.94 1 284.88 1 291 C102.64 291 204.28 291 309 291 C309 285.06 309 279.12 309 273 C314.94 273 320.88 273 327 273 C327 195.12 327 117.24 327 37 C321.06 37 315.12 37 309 37 C309 31.06 309 25.12 309 19 C207.36 19 105.72 19 1 19 Z " fill="#000000" transform="translate(95,95)"/>
<path d="M0 0 C6.27 0 12.54 0 19 0 C19 12.21 19 24.42 19 37 C24.94 37 30.88 37 37 37 C37 42.94 37 48.88 37 55 C42.94 55 48.88 55 55 55 C55 60.94 55 66.88 55 73 C60.94 73 66.88 73 73 73 C73 78.94 73 84.88 73 91 C78.94 91 84.88 91 91 91 C91 96.94 91 102.88 91 109 C103.21 109 115.42 109 128 109 C128 115.27 128 121.54 128 128 C145.82 128 163.64 128 182 128 C182 121.73 182 115.46 182 109 C193.88 109 205.76 109 218 109 C218 103.06 218 97.12 218 91 C223.94 91 229.88 91 236 91 C236 85.06 236 79.12 236 73 C241.94 73 247.88 73 254 73 C254 67.06 254 61.12 254 55 C260.27 55 266.54 55 273 55 C273 49.06 273 43.12 273 37 C278.94 37 284.88 37 291 37 C291 24.79 291 12.58 291 0 C297.27 0 303.54 0 310 0 C310 12.21 310 24.42 310 37 C304.06 37 298.12 37 292 37 C292 43.27 292 49.54 292 56 C286.06 56 280.12 56 274 56 C274 61.94 274 67.88 274 74 C267.73 74 261.46 74 255 74 C255 79.94 255 85.88 255 92 C249.06 92 243.12 92 237 92 C237 97.94 237 103.88 237 110 C231.06 110 225.12 110 219 110 C219 115.94 219 121.88 219 128 C224.94 128 230.88 128 237 128 C237 133.94 237 139.88 237 146 C242.94 146 248.88 146 255 146 C255 151.94 255 157.88 255 164 C261.27 164 267.54 164 274 164 C274 169.94 274 175.88 274 182 C275.98 182 277.96 182 280 182 C280.33 181.01 280.66 180.02 281 179 C281 179.99 281 180.98 281 182 C284.63 182 288.26 182 292 182 C292 188.27 292 194.54 292 201 C285.73 201 279.46 201 273 201 C273 195.06 273 189.12 273 183 C266.73 183 260.46 183 254 183 C254 177.06 254 171.12 254 165 C248.06 165 242.12 165 236 165 C236 159.06 236 153.12 236 147 C230.06 147 224.12 147 218 147 C218 141.06 218 135.12 218 129 C206.45 129 194.9 129 183 129 C183 134.61 183 140.22 183 146 C182 147 182 147 179.79173279 147.12025452 C178.81688431 147.11803391 177.84203583 147.11581329 176.83764648 147.11352539 C175.73658066 147.11344986 174.63551483 147.11337433 173.50108337 147.11329651 C172.3031868 147.10813522 171.10529022 147.10297394 169.87109375 147.09765625 C168.65172623 147.0962413 167.4323587 147.09482635 166.17604065 147.09336853 C162.2631693 147.08774967 158.35035419 147.07519396 154.4375 147.0625 C151.79231853 147.05748743 149.14713617 147.0529241 146.50195312 147.04882812 C140.00128026 147.03777411 133.50064968 147.02049683 127 147 C127 141.06 127 135.12 127 129 C115.12 129 103.24 129 91 129 C91 134.94 91 140.88 91 147 C85.06 147 79.12 147 73 147 C73 152.94 73 158.88 73 165 C67.06 165 61.12 165 55 165 C55 170.94 55 176.88 55 183 C49.06 183 43.12 183 37 183 C37 188.94 37 194.88 37 201 C30.73 201 24.46 201 18 201 C18 194.73 18 188.46 18 182 C23.94 182 29.88 182 36 182 C36 176.06 36 170.12 36 164 C41.94 164 47.88 164 54 164 C54 158.06 54 152.12 54 146 C59.94 146 65.88 146 72 146 C72 140.06 72 134.12 72 128 C77.94 128 83.88 128 90 128 C90 122.06 90 116.12 90 110 C84.06 110 78.12 110 72 110 C72 104.06 72 98.12 72 92 C66.06 92 60.12 92 54 92 C54 86.06 54 80.12 54 74 C48.06 74 42.12 74 36 74 C36 68.06 36 62.12 36 56 C30.06 56 24.12 56 18 56 C18 49.73 18 43.46 18 37 C12.06 37 6.12 37 0 37 C0 24.79 0 12.58 0 0 Z " fill="#9C9C9C" transform="translate(95,149)"/>
<path d="M0 0 C7.59 0 15.18 0 23 0 C23 128.04 23 256.08 23 388 C15.41 388 7.82 388 0 388 C0 259.96 0 131.92 0 0 Z " fill="#040404" transform="translate(467,56)"/>
<path d="M0 0 C128.04 0 256.08 0 388 0 C388 7.26 388 14.52 388 22 C259.96 22 131.92 22 0 22 C0 14.74 0 7.48 0 0 Z " fill="#000000" transform="translate(56,467)"/>
<path d="M0 0 C128.04 0 256.08 0 388 0 C388 7.26 388 14.52 388 22 C259.96 22 131.92 22 0 22 C0 14.74 0 7.48 0 0 Z " fill="#000000" transform="translate(56,11)"/>
<path d="M0 0 C101.97 0 203.94 0 309 0 C309 5.61 309 11.22 309 17 C207.03 17 105.06 17 0 17 C0 11.39 0 5.78 0 0 Z " fill="#000000" transform="translate(95,387)"/>
<path d="M0 0 C128.37 0 256.74 0 389 0 C389 0.33 389 0.66 389 1 C260.96 1 132.92 1 1 1 C1 8.26 1 15.52 1 23 C136.63 23 272.26 23 412 23 C412 166.22 412 309.44 412 457 C276.37 457 140.74 457 1 457 C1 464.26 1 471.52 1 479 C129.04 479 257.08 479 389 479 C389 479.33 389 479.66 389 480 C260.63 480 132.26 480 0 480 C0 472.41 0 464.82 0 457 C-7.26 457 -14.52 457 -22 457 C-22 313.78 -22 170.56 -22 23 C-14.74 23 -7.48 23 0 23 C0 15.41 0 7.82 0 0 Z M1 24 C1 31.59 1 39.18 1 47 C-6.26 47 -13.52 47 -21 47 C-21 174.38 -21 301.76 -21 433 C-13.74 433 -6.48 433 1 433 C1 440.59 1 448.18 1 456 C128.71 456 256.42 456 388 456 C388.33 448.74 388.66 441.48 389 434 C399.89 433.505 399.89 433.505 411 433 C411 305.62 411 178.24 411 47 C400.11 46.505 400.11 46.505 389 46 C388.67 38.74 388.34 31.48 388 24 C260.29 24 132.58 24 1 24 Z " fill="#6C6C6C" transform="translate(55,10)"/>
<path d="M0 0 C5.94 0 11.88 0 18 0 C18 77.88 18 155.76 18 236 C12.06 236 6.12 236 0 236 C0 158.12 0 80.24 0 0 Z " fill="#000000" transform="translate(423,132)"/>
<path d="M0 0 C5.61 0 11.22 0 17 0 C17 77.88 17 155.76 17 236 C11.39 236 5.78 236 0 236 C0 158.12 0 80.24 0 0 Z " fill="#000000" transform="translate(59,132)"/>
<path d="M0 0 C0.33 0 0.66 0 1 0 C1 5.94 1 11.88 1 18 C6.94 18 12.88 18 19 18 C19 23.94 19 29.88 19 36 C24.94 36 30.88 36 37 36 C37 36.33 37 36.66 37 37 C31.06 37 25.12 37 19 37 C19 121.15 19 205.3 19 292 C13.06 292 7.12 292 1 292 C1 297.94 1 303.88 1 310 C-101.3 310 -203.6 310 -309 310 C-309 309.67 -309 309.34 -309 309 C-207.03 309 -105.06 309 0 309 C0 303.39 0 297.78 0 292 C-108.24 292 -216.48 292 -328 292 C-328 207.85 -328 123.7 -328 37 C-333.61 37 -339.22 37 -345 37 C-345 114.88 -345 192.76 -345 273 C-345.33 273 -345.66 273 -346 273 C-346 194.79 -346 116.58 -346 36 C-340.06 36 -334.12 36 -328 36 C-328 30.06 -328 24.12 -328 18 C-219.76 18 -111.52 18 0 18 C0 12.06 0 6.12 0 0 Z M-308 19 C-308.33 24.61 -308.66 30.22 -309 36 C-314.94 36.33 -320.88 36.66 -327 37 C-327 114.88 -327 192.76 -327 273 C-320.73 273 -314.46 273 -308 273 C-308 278.94 -308 284.88 -308 291 C-206.36 291 -104.72 291 0 291 C0 285.06 0 279.12 0 273 C5.94 273 11.88 273 18 273 C18 195.12 18 117.24 18 37 C12.06 37 6.12 37 0 37 C0 31.06 0 25.12 0 19 C-101.64 19 -203.28 19 -308 19 Z " fill="#7D7D7D" transform="translate(404,95)"/>
<path d="M0 0 C6.27 0 12.54 0 19 0 C19 12.21 19 24.42 19 37 C24.94 37 30.88 37 37 37 C37 42.94 37 48.88 37 55 C42.94 55 48.88 55 55 55 C55 60.94 55 66.88 55 73 C60.94 73 66.88 73 73 73 C73 78.94 73 84.88 73 91 C78.94 91 84.88 91 91 91 C91 97.27 91 103.54 91 110 C84.73 110 78.46 110 72 110 C72 104.06 72 98.12 72 92 C66.06 92 60.12 92 54 92 C54 86.06 54 80.12 54 74 C48.06 74 42.12 74 36 74 C36 68.06 36 62.12 36 56 C30.06 56 24.12 56 18 56 C18 49.73 18 43.46 18 37 C12.06 37 6.12 37 0 37 C0 24.79 0 12.58 0 0 Z " fill="#202020" transform="translate(95,149)"/>
<path d="M0 0 C128.37 0 256.74 0 389 0 C389 0.33 389 0.66 389 1 C260.96 1 132.92 1 1 1 C1 8.26 1 15.52 1 23 C136.63 23 272.26 23 412 23 C412 30.59 412 38.18 412 46 C404.08 46 396.16 46 388 46 C388 38.74 388 31.48 388 24 C260.29 24 132.58 24 1 24 C1 31.26 1 38.52 1 46 C-6.59 46 -14.18 46 -22 46 C-22 38.41 -22 30.82 -22 23 C-14.74 23 -7.48 23 0 23 C0 15.41 0 7.82 0 0 Z " fill="#3C3C3C" transform="translate(55,10)"/>
<path d="M0 0 C7.59 0 15.18 0 23 0 C23 135.63 23 271.26 23 411 C-112.63 411 -248.26 411 -388 411 C-388 410.67 -388 410.34 -388 410 C-260.29 410 -132.58 410 -1 410 C-1 402.74 -1 395.48 -1 388 C-0.67 387.67 -0.34 387.34 0 387 C7.26 387 14.52 387 22 387 C22 259.62 22 132.24 22 1 C14.74 1 7.48 1 0 1 C0 0.67 0 0.34 0 0 Z " fill="#747474" transform="translate(444,56)"/>
<path d="M0 0 C0.33 0 0.66 0 1 0 C1 5.94 1 11.88 1 18 C6.94 18 12.88 18 19 18 C19 23.94 19 29.88 19 36 C24.94 36 30.88 36 37 36 C37 36.33 37 36.66 37 37 C31.06 37 25.12 37 19 37 C19 121.15 19 205.3 19 292 C13.06 292 7.12 292 1 292 C1 285.73 1 279.46 1 273 C6.61 273 12.22 273 18 273 C18 195.12 18 117.24 18 37 C12.06 37 6.12 37 0 37 C0 24.79 0 12.58 0 0 Z " fill="#969696" transform="translate(404,95)"/>
<path d="M0 0 C135.63 0 271.26 0 411 0 C411 7.59 411 15.18 411 23 C403.08 23 395.16 23 387 23 C387 15.74 387 8.48 387 1 C259.29 1 131.58 1 0 1 C0 0.67 0 0.34 0 0 Z " fill="#565656" transform="translate(56,33)"/>
<path d="M0 0 C17.82 0 35.64 0 54 0 C54 5.61 54 11.22 54 17 C36.18 17 18.36 17 0 17 C0 11.39 0 5.78 0 0 Z " fill="#000000" transform="translate(223,278)"/>
<path d="M0 0 C11.88 0 23.76 0 36 0 C36 5.94 36 11.88 36 18 C24.12 18 12.24 18 0 18 C0 12.06 0 6.12 0 0 Z " fill="#000000" transform="translate(277,259)"/>
<path d="M0 0 C11.88 0 23.76 0 36 0 C36 5.94 36 11.88 36 18 C24.12 18 12.24 18 0 18 C0 12.06 0 6.12 0 0 Z " fill="#000000" transform="translate(186,259)"/>
<path d="M0 0 C5.94 0 11.88 0 18 0 C18 11.88 18 23.76 18 36 C12.06 36 6.12 36 0 36 C0 24.12 0 12.24 0 0 Z " fill="#000000" transform="translate(95,150)"/>
<path d="M0 0 C5.61 0 11.22 0 17 0 C17 11.88 17 23.76 17 36 C11.39 36 5.78 36 0 36 C0 24.12 0 12.24 0 0 Z " fill="#000000" transform="translate(387,150)"/>
<path d="M0 0 C5.94 0 11.88 0 18 0 C18 5.94 18 11.88 18 18 C12.06 18 6.12 18 0 18 C0 12.06 0 6.12 0 0 Z " fill="#000000" transform="translate(77,368)"/>
<path d="M0 0 C5.94 0 11.88 0 18 0 C18 5.94 18 11.88 18 18 C12.06 18 6.12 18 0 18 C0 12.06 0 6.12 0 0 Z " fill="#010101" transform="translate(368,332)"/>
<path d="M0 0 C5.94 0 11.88 0 18 0 C18 5.94 18 11.88 18 18 C12.06 18 6.12 18 0 18 C0 12.06 0 6.12 0 0 Z " fill="#030303" transform="translate(113,332)"/>
<path d="M0 0 C5.94 0 11.88 0 18 0 C18 5.94 18 11.88 18 18 C12.06 18 6.12 18 0 18 C0 12.06 0 6.12 0 0 Z " fill="#030303" transform="translate(350,314)"/>
<path d="M0 0 C5.94 0 11.88 0 18 0 C18 5.94 18 11.88 18 18 C12.06 18 6.12 18 0 18 C0 12.06 0 6.12 0 0 Z " fill="#050505" transform="translate(332,295)"/>
<path d="M0 0 C5.94 0 11.88 0 18 0 C18 5.94 18 11.88 18 18 C12.06 18 6.12 18 0 18 C0 12.06 0 6.12 0 0 Z " fill="#040404" transform="translate(168,241)"/>
<path d="M0 0 C5.94 0 11.88 0 18 0 C18 5.94 18 11.88 18 18 C12.06 18 6.12 18 0 18 C0 12.06 0 6.12 0 0 Z " fill="#050505" transform="translate(332,223)"/>
<path d="M0 0 C5.94 0 11.88 0 18 0 C18 5.94 18 11.88 18 18 C12.06 18 6.12 18 0 18 C0 12.06 0 6.12 0 0 Z " fill="#030303" transform="translate(350,204)"/>
<path d="M0 0 C5.94 0 11.88 0 18 0 C18 5.94 18 11.88 18 18 C12.06 18 6.12 18 0 18 C0 12.06 0 6.12 0 0 Z " fill="#010101" transform="translate(368,186)"/>
<path d="M0 0 C5.94 0 11.88 0 18 0 C18 5.94 18 11.88 18 18 C12.06 18 6.12 18 0 18 C0 12.06 0 6.12 0 0 Z " fill="#040404" transform="translate(77,113)"/>
<path d="M0 0 C5.61 0 11.22 0 17 0 C17 5.94 17 11.88 17 18 C11.39 18 5.78 18 0 18 C0 12.06 0 6.12 0 0 Z " fill="#000000" transform="translate(405,368)"/>
<path d="M0 0 C5.94 0 11.88 0 18 0 C18 5.61 18 11.22 18 17 C12.06 17 6.12 17 0 17 C0 11.39 0 5.78 0 0 Z " fill="#000000" transform="translate(168,278)"/>
<path d="M0 0 C5.61 0 11.22 0 17 0 C17 5.61 17 11.22 17 17 C11.39 17 5.78 17 0 17 C0 11.39 0 5.78 0 0 Z " fill="#000000" transform="translate(132,314)"/>
<path d="M0 0 C5.61 0 11.22 0 17 0 C17 5.61 17 11.22 17 17 C11.39 17 5.78 17 0 17 C0 11.39 0 5.78 0 0 Z " fill="#000000" transform="translate(150,296)"/>
<path d="M0 0 C5.61 0 11.22 0 17 0 C17 5.61 17 11.22 17 17 C11.39 17 5.78 17 0 17 C0 11.39 0 5.78 0 0 Z " fill="#000000" transform="translate(314,278)"/>
<path d="M0 0 C5.61 0 11.22 0 17 0 C17 5.61 17 11.22 17 17 C11.39 17 5.78 17 0 17 C0 11.39 0 5.78 0 0 Z " fill="#000000" transform="translate(314,241)"/>
<path d="M0 0 C5.61 0 11.22 0 17 0 C17 5.61 17 11.22 17 17 C11.39 17 5.78 17 0 17 C0 11.39 0 5.78 0 0 Z " fill="#000000" transform="translate(150,223)"/>
<path d="M0 0 C5.61 0 11.22 0 17 0 C17 5.61 17 11.22 17 17 C11.39 17 5.78 17 0 17 C0 11.39 0 5.78 0 0 Z " fill="#000000" transform="translate(132,205)"/>
<path d="M0 0 C5.61 0 11.22 0 17 0 C17 5.61 17 11.22 17 17 C11.39 17 5.78 17 0 17 C0 11.39 0 5.78 0 0 Z " fill="#000000" transform="translate(405,114)"/>
<path d="M0 0 C0.33 0 0.66 0 1 0 C1 5.94 1 11.88 1 18 C6.94 18 12.88 18 19 18 C19 23.94 19 29.88 19 36 C24.94 36 30.88 36 37 36 C37 41.94 37 47.88 37 54 C42.94 54 48.88 54 55 54 C55 54.33 55 54.66 55 55 C49.06 55 43.12 55 37 55 C37 60.94 37 66.88 37 73 C36.67 73 36.34 73 36 73 C36 67.06 36 61.12 36 55 C30.06 55 24.12 55 18 55 C18 49.06 18 43.12 18 37 C12.06 37 6.12 37 0 37 C0 31.06 0 25.12 0 19 C-5.94 19 -11.88 19 -18 19 C-18 18.67 -18 18.34 -18 18 C-12.06 18 -6.12 18 0 18 C0 12.06 0 6.12 0 0 Z M1 19 C1 24.61 1 30.22 1 36 C6.61 36 12.22 36 18 36 C18 30.39 18 24.78 18 19 C12.39 19 6.78 19 1 19 Z M19 37 C19 42.61 19 48.22 19 54 C24.61 54 30.22 54 36 54 C36 48.39 36 42.78 36 37 C30.39 37 24.78 37 19 37 Z " fill="#858585" transform="translate(131,186)"/>
<path d="M0 0 C12.21 0 24.42 0 37 0 C37 0.33 37 0.66 37 1 C31.06 1 25.12 1 19 1 C19 6.94 19 12.88 19 19 C13.06 19 7.12 19 1 19 C1 24.94 1 30.88 1 37 C-4.94 37 -10.88 37 -17 37 C-17 42.94 -17 48.88 -17 55 C-17.33 55 -17.66 55 -18 55 C-18 49.06 -18 43.12 -18 37 C-23.94 37 -29.88 37 -36 37 C-36 36.67 -36 36.34 -36 36 C-30.06 36 -24.12 36 -18 36 C-18 30.06 -18 24.12 -18 18 C-12.06 18 -6.12 18 0 18 C0 12.06 0 6.12 0 0 Z M1 1 C1 6.61 1 12.22 1 18 C6.61 18 12.22 18 18 18 C18 12.39 18 6.78 18 1 C12.39 1 6.78 1 1 1 Z M-17 19 C-17 24.61 -17 30.22 -17 36 C-11.39 36 -5.78 36 0 36 C0 30.39 0 24.78 0 19 C-5.61 19 -11.22 19 -17 19 Z " fill="#7A7A7A" transform="translate(149,295)"/>
<path d="M0 0 C0.33 0 0.66 0 1 0 C1 5.94 1 11.88 1 18 C6.94 18 12.88 18 19 18 C19 23.94 19 29.88 19 36 C18.67 36 18.34 36 18 36 C18 30.39 18 24.78 18 19 C12.39 19 6.78 19 1 19 C1 24.61 1 30.22 1 36 C0.67 36 0.34 36 0 36 C0 30.39 0 24.78 0 19 C-5.94 19 -11.88 19 -18 19 C-18 18.67 -18 18.34 -18 18 C-12.06 18 -6.12 18 0 18 C0 12.06 0 6.12 0 0 Z " fill="#7A7A7A" transform="translate(131,186)"/>
<path d="" fill="#FFFFFF" transform="translate(0,0)"/>
</svg>
