<?xml version="1.0" encoding="UTF-8"?>
<svg version="1.1" xmlns="http://www.w3.org/2000/svg" width="500" height="500">
<path d="M0 0 C14.52 0 29.04 0 44 0 C44 0.99 44 1.98 44 3 C49.94 3 55.88 3 62 3 C62.33 4.65 62.66 6.3 63 8 C67.29 8 71.58 8 76 8 C76.33 9.65 76.66 11.3 77 13 C80.96 13 84.92 13 89 13 C89.33 14.32 89.66 15.64 90 17 C91.65 17 93.3 17 95 17 C95.33 18.32 95.66 19.64 96 21 C98.64 21.33 101.28 21.66 104 22 C104 23.65 104 25.3 104 27 C105.65 27 107.3 27 109 27 C109.185625 27.61875 109.37125 28.2375 109.5625 28.875 C111.71437233 32.05602866 114.37533763 32.19451947 118 33 C118 33.99 118 34.98 118 36 C119.65 36 121.3 36 123 36 C123.4021875 36.9590625 123.4021875 36.9590625 123.8125 37.9375 C124.88667752 40.33131686 124.88667752 40.33131686 128 41 C128 42.32 128 43.64 128 45 C129.32 45.33 130.64 45.66 132 46 C132.0825 47.11375 132.165 48.2275 132.25 49.375 C132.57873787 53.05753944 132.57873787 53.05753944 135.0625 54.4375 C135.701875 54.623125 136.34125 54.80875 137 55 C137 56.32 137 57.64 137 59 C138.32 59 139.64 59 141 59 C141.33 60.65 141.66 62.3 142 64 C143.65 64.33 145.3 64.66 147 65 C147 67.64 147 70.28 147 73 C148.32 73 149.64 73 151 73 C151 75.97 151 78.94 151 82 C152.65 82.33 154.3 82.66 156 83 C156 87.29 156 91.58 156 96 C157.32 96 158.64 96 160 96 C160.99250545 101.70690634 161.10477512 107.21408489 161 113 C162.32 113.66 163.64 114.32 165 115 C165 132.49 165 149.98 165 168 C163.68 168.33 162.36 168.66 161 169 C160.67 174.61 160.34 180.22 160 186 C158.68 186.33 157.36 186.66 156 187 C156 189.97 156 192.94 156 196 C154.35 196.33 152.7 196.66 151 197 C151 199.97 151 202.94 151 206 C149.68 206 148.36 206 147 206 C147.0309375 207.9490625 147.0309375 207.9490625 147.0625 209.9375 C147.08399454 211.29165633 147.07148199 212.64756083 147 214 C146 215 146 215 143.4375 215.0625 C142.633125 215.041875 141.82875 215.02125 141 215 C141 217.64 141 220.28 141 223 C139.68 223.33 138.36 223.66 137 224 C136.67 225.65 136.34 227.3 136 229 C134.68 229 133.36 229 132 229 C132 230.65 132 232.3 132 234 C130.68 234 129.36 234 128 234 C128 235.32 128 236.64 128 238 C126.35 238 124.7 238 123 238 C123 239.65 123 241.3 123 243 C121.68 243 120.36 243 119 243 C119 244.32 119 245.64 119 247 C117.35 247 115.7 247 114 247 C114 248.65 114 250.3 114 252 C110.7 252 107.4 252 104 252 C104 253.65 104 255.3 104 257 C102.68 257 101.36 257 100 257 C99.67 258.65 99.34 260.3 99 262 C96.69 262 94.38 262 92 262 C91.34 263.32 90.68 264.64 90 266 C87.36 266 84.72 266 82 266 C81.67 267.65 81.34 269.3 81 271 C78.03 271 75.06 271 72 271 C71.67 272.32 71.34 273.64 71 275 C66.05 275 61.1 275 56 275 C56 273.68 56 272.36 56 271 C54.35 270.67 52.7 270.34 51 270 C51 250.2 51 230.4 51 210 C49.68 210 48.36 210 47 210 C47 208.68 47 207.36 47 206 C45.35 205.67 43.7 205.34 42 205 C42 203.02 42 201.04 42 199 C43.65 199 45.3 199 47 199 C47 197.35 47 195.7 47 194 C54.59 194 62.18 194 70 194 C70.33 192.35 70.66 190.7 71 189 C73.64 189 76.28 189 79 189 C79 187.68 79 186.36 79 185 C81.97 185 84.94 185 88 185 C88.33 183.35 88.66 181.7 89 180 C90.32 180 91.64 180 93 180 C93 177.36 93 174.72 93 172 C94.65 171.67 96.3 171.34 98 171 C98 169.35 98 167.7 98 166 C99.32 166 100.64 166 102 166 C102 161.71 102 157.42 102 153 C103.65 152.67 105.3 152.34 107 152 C107 142.1 107 132.2 107 122 C105.35 121.67 103.7 121.34 102 121 C102 117.7 102 114.4 102 111 C100.68 111 99.36 111 98 111 C98 108.36 98 105.72 98 103 C96.35 103 94.7 103 93 103 C93 90.79 93 78.58 93 66 C87.72 66 82.44 66 77 66 C76.67 67.65 76.34 69.3 76 71 C73.03 71 70.06 71 67 71 C67 72.32 67 73.64 67 75 C66.38125 75.0825 65.7625 75.165 65.125 75.25 C62.46510021 75.91214206 62.46510021 75.91214206 61 80 C58.03 80 55.06 80 52 80 C51.67 78.35 51.34 76.7 51 75 C22.785 75.495 22.785 75.495 -6 76 C-6.99 77.98 -6.99 77.98 -8 80 C-11.3 80 -14.6 80 -18 80 C-18.33 78.68 -18.66 77.36 -19 76 C-20.65 75.67 -22.3 75.34 -24 75 C-24 73.68 -24 72.36 -24 71 C-26.64 71 -29.28 71 -32 71 C-32.33 69.35 -32.66 67.7 -33 66 C-38.28 66 -43.56 66 -49 66 C-49 78.21 -49 90.42 -49 103 C-50.65 103 -52.3 103 -54 103 C-53.67 103.99 -53.34 104.98 -53 106 C-53.33 106.66 -53.66 107.32 -54 108 C-55.32 108 -56.64 108 -58 108 C-58 112.29 -58 116.58 -58 121 C-60.475 121.495 -60.475 121.495 -63 122 C-63 131.9 -63 141.8 -63 152 C-61.35 152.33 -59.7 152.66 -58 153 C-58 157.29 -58 161.58 -58 166 C-56.68 166 -55.36 166 -54 166 C-53.9175 167.27875 -53.835 168.5575 -53.75 169.875 C-53.54130069 172.05333418 -53.54130069 172.05333418 -53 174 C-51.07935207 175.5899433 -51.07935207 175.5899433 -49 176 C-49 177.32 -49 178.64 -49 180 C-47.68 180 -46.36 180 -45 180 C-45 181.65 -45 183.3 -45 185 C-41.7 185 -38.4 185 -35 185 C-35 186.32 -35 187.64 -35 189 C-32.36 189 -29.72 189 -27 189 C-26.505 191.475 -26.505 191.475 -26 194 C-18.41 194 -10.82 194 -3 194 C-3 199.28 -3 204.56 -3 210 C-4.32 210 -5.64 210 -7 210 C-6.98839844 210.91523438 -6.97679687 211.83046875 -6.96484375 212.7734375 C-6.95582031 213.96195313 -6.94679688 215.15046875 -6.9375 216.375 C-6.92589844 217.55835938 -6.91429687 218.74171875 -6.90234375 219.9609375 C-7 223 -7 223 -8 225 C-13.61 225 -19.22 225 -25 225 C-25.33 225.99 -25.66 226.98 -26 228 C-28.875 228.1875 -28.875 228.1875 -32 228 C-32.66 227.01 -33.32 226.02 -34 225 C-36.60035351 224.67304925 -36.60035351 224.67304925 -39.5 224.875 C-44.82926829 225.08536585 -44.82926829 225.08536585 -47 224 C-47.2165625 223.01 -47.2165625 223.01 -47.4375 222 C-47.623125 221.34 -47.80875 220.68 -48 220 C-48.99 219.67 -49.98 219.34 -51 219 C-51 217.68 -51 216.36 -51 215 C-52.65 215 -54.3 215 -56 215 C-56 213.35 -56 211.7 -56 210 C-56.66 210 -57.32 210 -58 210 C-58 212.31 -58 214.62 -58 217 C-56.68 217 -55.36 217 -54 217 C-54 219.97 -54 222.94 -54 226 C-52.35 226.33 -50.7 226.66 -49 227 C-49 228.32 -49 229.64 -49 231 C-47.68 231 -46.36 231 -45 231 C-44.67 232.32 -44.34 233.64 -44 235 C-42.91468994 235.02505615 -41.82937988 235.0501123 -40.71118164 235.07592773 C-36.698684 235.16983755 -32.68636618 235.27009767 -28.67407227 235.37231445 C-26.93485712 235.41572573 -25.19559765 235.45739612 -23.45629883 235.49731445 C-20.96161512 235.55486768 -18.4671559 235.6186042 -15.97265625 235.68359375 C-15.19036148 235.70030624 -14.40806671 235.71701874 -13.60206604 235.73423767 C-8.11387171 235.88612829 -8.11387171 235.88612829 -7 237 C-6.91156207 239.44830426 -6.88471248 241.86820599 -6.90234375 244.31640625 C-6.9037587 245.04746078 -6.90517365 245.77851532 -6.90663147 246.53172302 C-6.91224592 248.87535632 -6.92480078 251.21889539 -6.9375 253.5625 C-6.94251314 255.14778508 -6.94707637 256.73307166 -6.95117188 258.31835938 C-6.96222003 262.2122761 -6.97949428 266.10612205 -7 270 C-8.65 270.33 -10.3 270.66 -12 271 C-12 272.32 -12 273.64 -12 275 C-16.95 275 -21.9 275 -27 275 C-27.33 273.68 -27.66 272.36 -28 271 C-30.97 271 -33.94 271 -37 271 C-37.33 269.68 -37.66 268.36 -38 267 C-40.64 266.67 -43.28 266.34 -46 266 C-46.33 264.35 -46.66 262.7 -47 261 C-49.97 261 -52.94 261 -56 261 C-56 259.68 -56 258.36 -56 257 C-58.64 256.67 -61.28 256.34 -64 256 C-64.33 254.68 -64.66 253.36 -65 252 C-66.65 252 -68.3 252 -70 252 C-70.268125 251.360625 -70.53625 250.72125 -70.8125 250.0625 C-71.88667752 247.66868314 -71.88667752 247.66868314 -75 247 C-75 245.68 -75 244.36 -75 243 C-76.32 243 -77.64 243 -79 243 C-79 241.35 -79 239.7 -79 238 C-80.65 238 -82.3 238 -84 238 C-84 236.68 -84 235.36 -84 234 C-85.32 234 -86.64 234 -88 234 C-88 232.35 -88 230.7 -88 229 C-89.65 228.67 -91.3 228.34 -93 228 C-93 226.68 -93 225.36 -93 224 C-94.32 223.67 -95.64 223.34 -97 223 C-97.33 220.36 -97.66 217.72 -98 215 C-99.32 215 -100.64 215 -102 215 C-102 212.03 -102 209.06 -102 206 C-103.65 205.67 -105.3 205.34 -107 205 C-107 202.36 -107 199.72 -107 197 C-108.65 196.67 -110.3 196.34 -112 196 C-112 193.03 -112 190.06 -112 187 C-113.32 186.67 -114.64 186.34 -116 186 C-116 180.06 -116 174.12 -116 168 C-117.65 167.67 -119.3 167.34 -121 167 C-121 149.84 -121 132.68 -121 115 C-119.02 114.01 -119.02 114.01 -117 113 C-116.67 107.39 -116.34 101.78 -116 96 C-114.68 96 -113.36 96 -112 96 C-112 91.71 -112 87.42 -112 83 C-109.525 82.505 -109.525 82.505 -107 82 C-107 79.03 -107 76.06 -107 73 C-105.35 73 -103.7 73 -102 73 C-102.061875 71.72125 -102.12375 70.4425 -102.1875 69.125 C-102.29296875 66.9453125 -102.29296875 66.9453125 -102 65 C-101.01 64.34 -100.02 63.68 -99 63 C-97.80767387 60.94996045 -97.80767387 60.94996045 -97 59 C-95.68 59 -94.36 59 -93 59 C-92.67 57.35 -92.34 55.7 -92 54 C-90.515 53.505 -90.515 53.505 -89 53 C-88.67 50.69 -88.34 48.38 -88 46 C-86.02 45.505 -86.02 45.505 -84 45 C-83.67 43.35 -83.34 41.7 -83 40 C-82.01 39.67 -81.02 39.34 -80 39 C-79.67 38.01 -79.34 37.02 -79 36 C-77.35 36 -75.7 36 -74 36 C-73.67 34.68 -73.34 33.36 -73 32 C-69.04 31.505 -69.04 31.505 -65 31 C-65 29.68 -65 28.36 -65 27 C-64.01 26.34 -63.02 25.68 -62 25 C-61.34 24.01 -60.68 23.02 -60 22 C-57.8359375 21.70703125 -57.8359375 21.70703125 -55.375 21.8125 C-54.14910156 21.85310547 -54.14910156 21.85310547 -52.8984375 21.89453125 C-52.27195312 21.92933594 -51.64546875 21.96414062 -51 22 C-51 20.35 -51 18.7 -51 17 C-49.35 17 -47.7 17 -46 17 C-45.67 15.68 -45.34 14.36 -45 13 C-41.04 13 -37.08 13 -33 13 C-32.67 11.35 -32.34 9.7 -32 8 C-27.71 8 -23.42 8 -19 8 C-18.67 6.35 -18.34 4.7 -18 3 C-12.06 3 -6.12 3 0 3 C0 2.01 0 1.02 0 0 Z M-72 197 C-72 197.66 -72 198.32 -72 199 C-71.34 199 -70.68 199 -70 199 C-70 198.34 -70 197.68 -70 197 C-70.66 197 -71.32 197 -72 197 Z M-68 201 C-68 201.66 -68 202.32 -68 203 C-66.35 203 -64.7 203 -63 203 C-63 204.65 -63 206.3 -63 208 C-62.01 208 -61.02 208 -60 208 C-60.33 205.69 -60.66 203.38 -61 201 C-63.31 201 -65.62 201 -68 201 Z " fill="#000000" transform="translate(228,112)"/>
<path d="M0 0 C128.37 0 256.74 0 389 0 C389 7.59 389 15.18 389 23 C396.59 23 404.18 23 412 23 C412 30.59 412 38.18 412 46 C419.59 46 427.18 46 435 46 C435 174.04 435 302.08 435 434 C427.41 434 419.82 434 412 434 C412 441.59 412 449.18 412 457 C404.41 457 396.82 457 389 457 C389 464.59 389 472.18 389 480 C260.63 480 132.26 480 0 480 C0 472.41 0 464.82 0 457 C-7.26 457 -14.52 457 -22 457 C-22 449.41 -22 441.82 -22 434 C-29.59 434 -37.18 434 -45 434 C-45 305.96 -45 177.92 -45 46 C-37.41 46 -29.82 46 -22 46 C-22 38.41 -22 30.82 -22 23 C-14.74 23 -7.48 23 0 23 C0 15.41 0 7.82 0 0 Z M1 24 C1 31.59 1 39.18 1 47 C-6.26 47 -13.52 47 -21 47 C-21 174.38 -21 301.76 -21 433 C-13.74 433 -6.48 433 1 433 C1 440.59 1 448.18 1 456 C128.71 456 256.42 456 388 456 C388.33 448.74 388.66 441.48 389 434 C399.89 433.505 399.89 433.505 411 433 C411 305.62 411 178.24 411 47 C400.11 46.505 400.11 46.505 389 46 C388.67 38.74 388.34 31.48 388 24 C260.29 24 132.58 24 1 24 Z " fill="#000000" transform="translate(55,10)"/>
<path d="M0 0 C113.19 0 226.38 0 343 0 C343 7.26 343 14.52 343 22 C350.59 22 358.18 22 366 22 C366 135.52 366 249.04 366 366 C358.41 366 350.82 366 343 366 C343 373.26 343 380.52 343 388 C229.81 388 116.62 388 0 388 C0 380.74 0 373.48 0 366 C-7.19522782 366.0395866 -7.19522782 366.0395866 -14.39038086 366.09008789 C-15.28120361 366.09258545 -16.17202637 366.09508301 -17.08984375 366.09765625 C-18.46450806 366.10551147 -18.46450806 366.10551147 -19.86694336 366.11352539 C-22 366 -22 366 -23 365 C-23.098413 363.18171301 -23.12555633 361.35955301 -23.12584114 359.53860474 C-23.12844889 358.3459091 -23.13105664 357.15321346 -23.13374341 355.92437553 C-23.13158089 354.58386088 -23.12932421 353.24334638 -23.12698364 351.90283203 C-23.1281345 350.49199953 -23.12972178 349.08116733 -23.13171089 347.67033577 C-23.1359091 343.77517943 -23.13381132 339.8800474 -23.13072467 335.98489094 C-23.12847278 331.79125613 -23.13194912 327.59762566 -23.13470459 323.4039917 C-23.13916355 315.18143696 -23.13818526 306.95889133 -23.13529195 298.73633623 C-23.13303841 292.05682837 -23.13272518 285.37732307 -23.13381577 278.69781494 C-23.133969 277.74906561 -23.13412223 276.80031628 -23.13428011 275.82281697 C-23.13459982 273.89577023 -23.13492403 271.9687235 -23.1352527 270.04167676 C-23.13810786 251.94927329 -23.1348199 233.85687488 -23.12945233 215.76447225 C-23.12498426 200.22253625 -23.12576018 184.68060773 -23.13037109 169.13867188 C-23.13571622 151.11334294 -23.13783317 133.08801844 -23.13475883 115.06268883 C-23.13444026 113.14252091 -23.13412589 111.22235298 -23.13381577 109.30218506 C-23.13366149 108.35729505 -23.13350721 107.41240504 -23.13334826 106.43888199 C-23.13248292 99.76331039 -23.13394635 93.08774158 -23.13629532 86.41217041 C-23.13909283 78.28274988 -23.13835609 70.153339 -23.13301457 62.02391958 C-23.1303769 57.87198702 -23.1293736 53.72007059 -23.13266373 49.56813812 C-23.13562535 45.77351379 -23.13403614 41.97892069 -23.12868617 38.18429923 C-23.12756141 36.80545131 -23.12815447 35.4266008 -23.13056196 34.04775453 C-23.13356593 32.18563653 -23.12991253 30.32351123 -23.12584114 28.46139526 C-23.12567879 27.42340223 -23.12551644 26.3854092 -23.12534916 25.31596184 C-23 23 -23 23 -22 22 C-20.36527118 21.91299658 -18.72685945 21.89298937 -17.08984375 21.90234375 C-16.199021 21.90484131 -15.30819824 21.90733887 -14.39038086 21.90991211 C-13.25093018 21.91901611 -12.11147949 21.92812012 -10.9375 21.9375 C-5.5234375 21.9684375 -5.5234375 21.9684375 0 22 C0 14.74 0 7.48 0 0 Z M1 23 C1 135.86 1 248.72 1 365 C113.86 365 226.72 365 343 365 C343 252.14 343 139.28 343 23 C230.14 23 117.28 23 1 23 Z " fill="#000000" transform="translate(78,56)"/>
<path d="M0 0 C0.66 0 1.32 0 2 0 C2 2.31 2 4.62 2 7 C1.34 7 0.68 7 0 7 C0 4.69 0 2.38 0 0 Z " fill="#030303" transform="translate(391,381)"/>
<path d="M0 0 C0.66 0 1.32 0 2 0 C2 2.31 2 4.62 2 7 C1.34 7 0.68 7 0 7 C0 4.69 0 2.38 0 0 Z " fill="#080808" transform="translate(107,381)"/>
<path d="" fill="#000000" transform="translate(0,0)"/>
<path d="" fill="#000000" transform="translate(0,0)"/>
<path d="" fill="#000000" transform="translate(0,0)"/>
<path d="" fill="#000000" transform="translate(0,0)"/>
</svg>
